<svg version="1.1" viewBox="0.0 0.0 1280.0 960.0" fill="#f56a6a" stroke="none" stroke-linecap="square" stroke-miterlimit="10" xmlns:xlink="http://www.w3.org/1999/xlink" xmlns="http://www.w3.org/2000/svg"><clipPath id="p.0"><path d="m0 0l1280.0 0l0 960.0l-1280.0 0l0 -960.0z" clip-rule="nonzero"/></clipPath><g clip-path="url(#p.0)"><path fill="#f56a6a" fill-opacity="0.0" d="m0 0l1280.0 0l0 960.0l-1280.0 0z" fill-rule="evenodd"/><path fill="#f56a6a" fill-opacity="0.0" d="m678.5557 97.52498c29.944092 0 51.951904 12.024612 66.02344 36.073822c14.184021 24.04924 21.276062 56.76735 21.276062 98.15436c0 48.517868 -6.416626 105.28523 -19.249817 170.30202l-273.04315 0c3.4897156 -13.702454 11.144623 -37.89148 22.96466 -72.56711c11.820068 -34.6756 26.904724 -71.168884 45.253906 -109.47987c18.349243 -38.310974 39.456482 -68.30258 63.321716 -89.97482c23.865234 -21.672272 48.34961 -32.508392 73.453186 -32.508392zm43.73419 415.05872c-4.0526123 17.4776 -12.157776 45.37195 -24.315552 83.68292c-12.157776 38.171143 -28.030396 79.418274 -47.61792 123.74158c-19.474976 44.18341 -41.87677 78.928894 -67.205444 104.23657c-25.216125 25.307617 -51.16394 37.961426 -77.843475 37.961426c-57.52423 0 -86.28635 -48.657715 -86.28638 -145.97314c0 -51.733765 9.005768 -119.61682 27.017273 -203.64935zm-36.473328 -512.58386c-63.26538 0 -123.997925 19.714766 -182.19763 59.144295c-58.199677 39.28972 -107.11218 89.625305 -146.73749 151.00671c-39.625305 61.241608 -71.3143 130.03354 -95.066986 206.37582c-23.640106 76.20245 -35.46016 151.6359 -35.46016 226.30032c0 92.841125 26.06041 168.90375 78.1812 228.18793c52.12079 59.144287 115.55505 88.71643 190.30283 88.71643c60.901398 0 120.226776 -18.736023 177.97617 -56.208008c57.862 -37.472046 107.28107 -85.50055 148.25726 -144.08557c41.088745 -58.724854 74.24115 -125.419495 99.457275 -200.08392c25.328674 -74.66443 37.99298 -148.62976 37.99298 -221.89597c0 -100.11183 -25.328674 -181.34784 -75.98602 -243.70804c-50.5448 -62.5 -116.11792 -93.75 -196.71942 -93.75z" fill-rule="evenodd"/><path stroke="#0abab5" stroke-width="3.0" stroke-linejoin="round" stroke-linecap="butt" d="m678.5557 97.52498c29.944092 0 51.951904 12.024612 66.02344 36.073822c14.184021 24.04924 21.276062 56.76735 21.276062 98.15436c0 48.517868 -6.416626 105.28523 -19.249817 170.30202l-273.04315 0c3.4897156 -13.702454 11.144623 -37.89148 22.96466 -72.56711c11.820068 -34.6756 26.904724 -71.168884 45.253906 -109.47987c18.349243 -38.310974 39.456482 -68.30258 63.321716 -89.97482c23.865234 -21.672272 48.34961 -32.508392 73.453186 -32.508392zm43.73419 415.05872c-4.0526123 17.4776 -12.157776 45.37195 -24.315552 83.68292c-12.157776 38.171143 -28.030396 79.418274 -47.61792 123.74158c-19.474976 44.18341 -41.87677 78.928894 -67.205444 104.23657c-25.216125 25.307617 -51.16394 37.961426 -77.843475 37.961426c-57.52423 0 -86.28635 -48.657715 -86.28638 -145.97314c0 -51.733765 9.005768 -119.61682 27.017273 -203.64935zm-36.473328 -512.58386c-63.26538 0 -123.997925 19.714766 -182.19763 59.144295c-58.199677 39.28972 -107.11218 89.625305 -146.73749 151.00671c-39.625305 61.241608 -71.3143 130.03354 -95.066986 206.37582c-23.640106 76.20245 -35.46016 151.6359 -35.46016 226.30032c0 92.841125 26.06041 168.90375 78.1812 228.18793c52.12079 59.144287 115.55505 88.71643 190.30283 88.71643c60.901398 0 120.226776 -18.736023 177.97617 -56.208008c57.862 -37.472046 107.28107 -85.50055 148.25726 -144.08557c41.088745 -58.724854 74.24115 -125.419495 99.457275 -200.08392c25.328674 -74.66443 37.99298 -148.62976 37.99298 -221.89597c0 -100.11183 -25.328674 -181.34784 -75.98602 -243.70804c-50.5448 -62.5 -116.11792 -93.75 -196.71942 -93.75z" fill-rule="evenodd"/></g></svg>